{
  "source": "C:\\Users\\Peter\\Desktop\\stuff\\MIUN\\quantitative_research\\video_compression\\videos\\BVI-HD\\BVI-HD_CDVL_videos\\ORIG\\Typing_1920x1080_60fps.mp4",
  "output": "C:\\Users\\Peter\\Desktop\\stuff\\MIUN\\quantitative_research\\video_compression\\compressed_videos\\BVI-HD\\vp9\\2\\Typing_1920x1080_60fps_vp9.webm",
  "codec": "vp9",
  "ok": "Input #0, mov,mp4,m4a,3gp,3g2,mj2, from 'C:\\Users\\Peter\\Desktop\\stuff\\MIUN\\quantitative_research\\video_compression\\videos\\BVI-HD\\BVI-HD_CDVL_videos\\ORIG\\Typing_1920x1080_60fps.mp4':\n  Metadata:\n    major_brand     : isom\n    minor_version   : 512\n    compatible_brands: isomiso2avc1mp41\n    encoder         : Lavf54.28.101\n  Duration: 00:00:05.00, start: 0.000000, bitrate: 203453 kb/s\n  Stream #0:0[0x1](und): Video: h264 (High 4:4:4 Predictive) (avc1 / 0x31637661), yuv420p(progressive), 1920x1080, 203448 kb/s, 60 fps, 60 tbr, 60 tbn (default)\n    Metadata:\n      handler_name    : VideoHandler\n      vendor_id       : [0][0][0][0]\n[out#0/webm @ 00000172bc179880] Codec AVOption b:a (set bitrate (in bits/s)) has not been used for any stream. The most likely reason is either wrong type (e.g. a video option with no video streams) or that it is a private option of some decoder which was not actually used for any stream.\nStream mapping:\n  Stream #0:0 -> #0:0 (h264 (native) -> vp9 (libvpx-vp9))\nPress [q] to stop, [?] for help\n[libvpx-vp9 @ 00000172bcba1b80] v1.15.2-100-g40561f514\nOutput #0, webm, to 'C:\\Users\\Peter\\Desktop\\stuff\\MIUN\\quantitative_research\\video_compression\\compressed_videos\\BVI-HD\\vp9\\2\\Typing_1920x1080_60fps_vp9.webm':\n  Metadata:\n    major_brand     : isom\n    minor_version   : 512\n    compatible_brands: isomiso2avc1mp41\n    encoder         : Lavf62.3.100\n  Stream #0:0(und): Video: vp9, yuv420p(tv, progressive), 1920x1080, q=2-31, 2000 kb/s, 60 fps, 1k tbn (default)\n    Metadata:\n      encoder         : Lavc62.11.100 libvpx-vp9\n      handler_name    : VideoHandler\n      vendor_id       : [0][0][0][0]\n    Side data:\n      cpb: bitrate max/min/avg: 0/0/0 buffer size: 2000000 vbv_delay: N/A\nframe=    0 fps=0.0 q=0.0 size=       0KiB time=N/A bitrate=N/A speed=N/A elapsed=0:00:00.51    \nframe=    9 fps=8.4 q=42.0 size=       1KiB time=00:00:00.15 bitrate=  33.8kbits/s speed=0.14x elapsed=0:00:01.07    \nframe=   15 fps=9.3 q=40.0 size=       1KiB time=00:00:00.25 bitrate=  20.3kbits/s speed=0.155x elapsed=0:00:01.60    \nframe=   21 fps=9.8 q=39.0 size=       1KiB time=00:00:00.35 bitrate=  14.5kbits/s speed=0.164x elapsed=0:00:02.13    \nframe=   26 fps=9.8 q=41.0 size=       1KiB time=00:00:00.43 bitrate=  11.7kbits/s speed=0.163x elapsed=0:00:02.65    \nframe=   32 fps= 10 q=40.0 size=       1KiB time=00:00:00.53 bitrate=   9.5kbits/s speed=0.167x elapsed=0:00:03.18    \nframe=   36 fps=9.7 q=38.0 size=       1KiB time=00:00:00.60 bitrate=   8.4kbits/s speed=0.162x elapsed=0:00:03.70    \nframe=   43 fps= 10 q=40.0 size=       1KiB time=00:00:00.71 bitrate=   7.1kbits/s speed=0.17x elapsed=0:00:04.22    \nframe=   49 fps= 10 q=27.0 size=       1KiB time=00:00:00.81 bitrate=   6.2kbits/s speed=0.172x elapsed=0:00:04.74    \nframe=   56 fps= 11 q=36.0 size=       1KiB time=00:00:00.93 bitrate=   5.4kbits/s speed=0.177x elapsed=0:00:05.27    \nframe=   60 fps= 10 q=36.0 size=       1KiB time=00:00:01.00 bitrate=   5.1kbits/s speed=0.173x elapsed=0:00:05.77    \nframe=   68 fps= 11 q=38.0 size=       1KiB time=00:00:01.13 bitrate=   4.5kbits/s speed=0.18x elapsed=0:00:06.30    \nframe=   74 fps= 11 q=39.0 size=       1KiB time=00:00:01.23 bitrate=   4.1kbits/s speed=0.18x elapsed=0:00:06.83    \nframe=   81 fps= 11 q=37.0 size=       1KiB time=00:00:01.35 bitrate=   3.8kbits/s speed=0.183x elapsed=0:00:07.35    \nframe=   85 fps= 11 q=19.0 size=       1KiB time=00:00:01.41 bitrate=   3.6kbits/s speed=0.18x elapsed=0:00:07.87    \nframe=   92 fps= 11 q=41.0 size=       1KiB time=00:00:01.53 bitrate=   3.3kbits/s speed=0.183x elapsed=0:00:08.38    \nframe=   98 fps= 11 q=39.0 size=       1KiB time=00:00:01.63 bitrate=   3.1kbits/s speed=0.183x elapsed=0:00:08.90    \nframe=  105 fps= 11 q=41.0 size=       1KiB time=00:00:01.75 bitrate=   2.9kbits/s speed=0.186x elapsed=0:00:09.42    \nframe=  110 fps= 11 q=40.0 size=       1KiB time=00:00:01.83 bitrate=   2.8kbits/s speed=0.184x elapsed=0:00:09.95    \nframe=  117 fps= 11 q=40.0 size=       1KiB time=00:00:01.95 bitrate=   2.6kbits/s speed=0.186x elapsed=0:00:10.50    \nframe=  123 fps= 11 q=36.0 size=       1KiB time=00:00:02.05 bitrate=   2.5kbits/s speed=0.186x elapsed=0:00:11.03    \nframe=  129 fps= 11 q=19.0 size=       1KiB time=00:00:02.15 bitrate=   2.4kbits/s speed=0.186x elapsed=0:00:11.58    \nframe=  138 fps= 11 q=40.0 size=     256KiB time=00:00:02.30 bitrate= 911.8kbits/s speed=0.19x elapsed=0:00:12.13    \nframe=  144 fps= 11 q=37.0 size=     256KiB time=00:00:02.40 bitrate= 873.8kbits/s speed=0.19x elapsed=0:00:12.66    \nframe=  149 fps= 11 q=38.0 size=     256KiB time=00:00:02.48 bitrate= 844.5kbits/s speed=0.188x elapsed=0:00:13.18    \nframe=  154 fps= 11 q=34.0 size=     256KiB time=00:00:02.56 bitrate= 817.1kbits/s speed=0.187x elapsed=0:00:13.71    \nframe=  158 fps= 11 q=32.0 size=     256KiB time=00:00:02.63 bitrate= 796.4kbits/s speed=0.185x elapsed=0:00:14.25    \nframe=  162 fps= 11 q=31.0 size=     256KiB time=00:00:02.68 bitrate= 781.5kbits/s speed=0.181x elapsed=0:00:14.79    \nframe=  163 fps= 11 q=31.0 size=     256KiB time=00:00:02.71 bitrate= 772.0kbits/s speed=0.177x elapsed=0:00:15.36    \nframe=  167 fps= 11 q=31.0 size=     256KiB time=00:00:02.78 bitrate= 753.5kbits/s speed=0.175x elapsed=0:00:15.87    \nframe=  172 fps= 10 q=31.0 size=     256KiB time=00:00:02.86 bitrate= 731.6kbits/s speed=0.175x elapsed=0:00:16.39    \nframe=  175 fps= 10 q=31.0 size=     256KiB time=00:00:02.91 bitrate= 719.0kbits/s speed=0.172x elapsed=0:00:16.94    \nframe=  181 fps= 10 q=31.0 size=     256KiB time=00:00:03.00 bitrate= 699.1kbits/s speed=0.172x elapsed=0:00:17.46    \nframe=  186 fps= 10 q=36.0 size=     256KiB time=00:00:03.10 bitrate= 676.5kbits/s speed=0.172x elapsed=0:00:18.02    \nframe=  189 fps= 10 q=38.0 size=     256KiB time=00:00:03.15 bitrate= 665.8kbits/s speed=0.17x elapsed=0:00:18.57    \nframe=  194 fps= 10 q=39.0 size=     256KiB time=00:00:03.23 bitrate= 648.6kbits/s speed=0.169x elapsed=0:00:19.12    \nframe=  199 fps= 10 q=39.0 size=     256KiB time=00:00:03.31 bitrate= 632.3kbits/s speed=0.169x elapsed=0:00:19.65    \nframe=  204 fps= 10 q=35.0 size=     256KiB time=00:00:03.40 bitrate= 616.8kbits/s speed=0.168x elapsed=0:00:20.18    \nframe=  209 fps= 10 q=39.0 size=     256KiB time=00:00:03.48 bitrate= 602.1kbits/s speed=0.168x elapsed=0:00:20.70    \nframe=  213 fps= 10 q=37.0 size=     256KiB time=00:00:03.55 bitrate= 590.7kbits/s speed=0.167x elapsed=0:00:21.21    \nframe=  217 fps= 10 q=39.0 size=     256KiB time=00:00:03.61 bitrate= 579.9kbits/s speed=0.166x elapsed=0:00:21.77    \nframe=  222 fps=9.9 q=39.0 size=     256KiB time=00:00:03.70 bitrate= 566.8kbits/s speed=0.166x elapsed=0:00:22.33    \nframe=  226 fps=9.9 q=37.0 size=     256KiB time=00:00:03.76 bitrate= 556.8kbits/s speed=0.165x elapsed=0:00:22.85    \nframe=  231 fps=9.9 q=37.0 size=     256KiB time=00:00:03.85 bitrate= 544.7kbits/s speed=0.165x elapsed=0:00:23.38    \nframe=  235 fps=9.8 q=36.0 size=     256KiB time=00:00:03.91 bitrate= 535.4kbits/s speed=0.164x elapsed=0:00:23.93    \nframe=  239 fps=9.7 q=39.0 size=     256KiB time=00:00:03.98 bitrate= 526.5kbits/s speed=0.162x elapsed=0:00:24.52    \nframe=  245 fps=9.8 q=38.0 size=     256KiB time=00:00:04.08 bitrate= 513.6kbits/s speed=0.163x elapsed=0:00:25.09    \nframe=  248 fps=9.7 q=36.0 size=     256KiB time=00:00:04.13 bitrate= 507.4kbits/s speed=0.161x elapsed=0:00:25.67    \nframe=  253 fps=9.6 q=38.0 size=     256KiB time=00:00:04.20 bitrate= 499.3kbits/s speed=0.16x elapsed=0:00:26.24    \nframe=  257 fps=9.6 q=20.0 size=     256KiB time=00:00:04.26 bitrate= 491.5kbits/s speed=0.159x elapsed=0:00:26.83    \nframe=  263 fps=9.6 q=36.0 size=    1024KiB time=00:00:04.38 bitrate=1913.8kbits/s speed=0.16x elapsed=0:00:27.37    \nframe=  268 fps=9.6 q=38.0 size=    1024KiB time=00:00:04.46 bitrate=1878.0kbits/s speed=0.16x elapsed=0:00:27.93    \nframe=  271 fps=9.5 q=36.0 size=    1024KiB time=00:00:04.51 bitrate=1857.3kbits/s speed=0.159x elapsed=0:00:28.48    \nframe=  276 fps=9.5 q=38.0 size=    1024KiB time=00:00:04.60 bitrate=1823.6kbits/s speed=0.159x elapsed=0:00:28.99    \nframe=  276 fps=9.3 q=38.0 size=    1024KiB time=00:00:04.60 bitrate=1823.6kbits/s speed=0.156x elapsed=0:00:29.52    \nframe=  276 fps=9.2 q=38.0 size=    1024KiB time=00:00:04.60 bitrate=1823.6kbits/s speed=0.153x elapsed=0:00:30.07    \nframe=  276 fps=9.0 q=38.0 size=    1024KiB time=00:00:04.60 bitrate=1823.6kbits/s speed=0.15x elapsed=0:00:30.61    \nframe=  276 fps=8.9 q=38.0 size=    1024KiB time=00:00:04.60 bitrate=1823.6kbits/s speed=0.148x elapsed=0:00:31.17    \nframe=  276 fps=8.7 q=38.0 size=    1024KiB time=00:00:04.60 bitrate=1823.6kbits/s speed=0.145x elapsed=0:00:31.72    \n[out#0/webm @ 00000172bc179880] video:1252KiB audio:0KiB subtitle:0KiB other streams:0KiB global headers:0KiB muxing overhead: 0.221774%\nframe=  300 fps=9.4 q=38.0 Lsize=    1255KiB time=00:00:05.00 bitrate=2056.4kbits/s speed=0.157x elapsed=0:00:31.82    \n",
  "seconds": 32.13738989830017,
  "probe_out": {}
}